<svg xmlns="http://www.w3.org/2000/svg" width="100%" height="100%" viewBox="0 0 32 32"><title>schema-explorer</title><path d="M10.667 20c0.736 0 1.333 0.597 1.333 1.333v5.333c0 0.736-0.597 1.333-1.333 1.333h-6.667c-0.736 0-1.333-0.597-1.333-1.333v-5.333c0-0.736 0.597-1.333 1.333-1.333h6.667zM18.667 4c0.736 0 1.333 0.597 1.333 1.333v5.333c0 0.736-0.597 1.333-1.333 1.333h-2.667v2.664h8v5.336h2.667c0.736 0 1.333 0.597 1.333 1.333v5.333c0 0.736-0.597 1.333-1.333 1.333h-6.667c-0.736 0-1.333-0.597-1.333-1.333v-5.333c0-0.736 0.597-1.333 1.333-1.333h2.667v-4h-14.667v4h-1.333v-5.336h8v-2.664h-2.667c-0.736 0-1.333-0.597-1.333-1.333v-5.333c0-0.736 0.597-1.333 1.333-1.333h6.667zM10.667 21.333h-6.667v5.333h6.667v-5.333zM26.667 21.333h-6.667v5.333h6.667v-5.333zM18.667 5.333h-6.667v5.333h6.667v-5.333z"></path></svg>
