<svg xmlns="http://www.w3.org/2000/svg" width="100%" height="100%" viewBox="0 0 32 32"><title>reverse-engeneer-explorer</title><path d="M15.333 4c6.259 0 11.333 2.686 11.333 6s-5.074 6-11.333 6c-4.33 0-8.092-1.285-10.001-3.175l0.001 10.581c0 2.359 4.545 4.608 9.762 4.608 4.369 0 8.078-1.611 8.957-3.695l1.228 0.518c-1.132 2.682-5.34 4.51-10.186 4.51-5.859 0-11.095-2.59-11.095-5.942v-13.407l0.007-0.211c0.21-3.216 5.2-5.789 11.326-5.789zM27.381 14.667l4.662 4.662-4.714 4.714-0.943-0.943 3.098-3.1h-8.151v-1.333h8.161l-3.057-3.057 0.943-0.943zM15.333 5.333c-5.62 0-10 2.319-10 4.667s4.38 4.667 10 4.667c5.62 0 10-2.319 10-4.667s-4.38-4.667-10-4.667z"></path></svg>
