<svg xmlns="http://www.w3.org/2000/svg" width="100%" height="100%" viewBox="0 0 32 32"><title>diagram-explorer</title><path d="M26.185 8c1.739 0 3.148 1.492 3.148 3.333v13.333c0 1.841-1.409 3.333-3.148 3.333h-16.37c-1.739 0-3.148-1.492-3.148-3.333v-0.667h-0.852c-1.739 0-3.148-1.492-3.148-3.333v-13.333c0-1.841 1.409-3.333 3.148-3.333h16.37c1.739 0 3.148 1.492 3.148 3.333v0.667h0.852zM17.333 18.667h-9.333v6c0 1.105 0.839 2 1.875 2h7.458v-8zM28 18.667h-9.333v8h7.458c1.036 0 1.875-0.895 1.875-2v-6zM17.333 9.333h-7.458c-1.036 0-1.875 0.895-1.875 2v6h9.333v-8zM26.125 9.333h-7.458v8h9.333v-6c0-1.105-0.839-2-1.875-2zM24 7.333c0-1.105-0.839-2-1.875-2h-16.25c-1.036 0-1.875 0.895-1.875 2v13.333c0 1.105 0.839 2 1.875 2h0.792v-11.333c0-1.841 1.409-3.333 3.148-3.333h14.185v-0.667z"></path></svg>
