<svg xmlns="http://www.w3.org/2000/svg" width="100%" height="100%" viewBox="0 0 32 32"><title>database-explorer</title><path d="M15.972 2.667c6.442 0 11.747 2.132 11.965 5.135l0.007 0.193h0.055v13.429c0 3.799-5.082 6.576-11.693 6.576-6.58 0-12.069-2.706-12.293-6.344l-0.014 0.001v-13.663c0-3.104 5.394-5.328 11.972-5.328zM26.67 10.455c-1.976 1.753-6.040 2.868-10.698 2.868-4.613 0-8.643-1.093-10.64-2.817l0.001 10.918h0.004c0 2.774 4.891 5.244 10.97 5.244 5.841 0 10.167-2.293 10.356-5.055l0.006-0.189v-10.969zM15.972 3.999c-5.911 0-10.642 1.951-10.642 3.996h0.003v0.069l0.004 0.070c0.208 1.994 4.858 3.857 10.635 3.857 5.911 0 10.642-1.951 10.642-3.996s-4.731-3.996-10.642-3.996z"></path></svg>
