<svg xmlns="http://www.w3.org/2000/svg" width="100%" height="100%" viewBox="0 0 32 32"><title>forward-engeneer-explorer</title><path d="M21.333 21.333v3.648c0 0.627 0.192 1.207 0.52 1.687l1.099-0.002c1.316 0 2.381-1.066 2.381-2.381v-17.619h-14.667l-0.001 14.667h10.668zM20 22.667h-13.333v2.315c0 0.929 0.756 1.685 1.685 1.685v0h11.989c-0.22-0.52-0.341-1.089-0.341-1.685v0-2.315zM8.352 28c-1.667 0-3.019-1.352-3.019-3.019v0-3.648h3.999l0.001-16h17.333v18.952c0 1.786-1.259 3.277-2.938 3.634 0.088 0.019 0.179 0.034 0.272 0.045v0 0.036h-2.667z"></path></svg>
