<svg xmlns="http://www.w3.org/2000/svg" width="100%" height="100%" viewBox="0 0 512 512"><title></title><g id="icomoon-ignore"></g><path fill="none" stroke-linejoin="miter" stroke-linecap="butt" stroke-miterlimit="4" stroke-width="21.3333" d="M437.46 245.405c0 94.284-76.432 170.716-170.716 170.716s-170.716-76.432-170.716-170.716c0-94.284 76.432-170.716 170.716-170.716s170.716 76.432 170.716 170.716z"></path><path d="M256.885 296.299c-0.086-2.988-0.128-5.25-0.128-6.764 0-8.834 1.259-16.453 3.756-22.876 2.277-5.621 5.269-10.462 8.933-14.706l-0.056 0.066c2.988-3.564 8.387-8.792 16.132-15.62 7.832-6.914 12.911-12.419 15.257-16.495 2.348-4.097 3.5-8.536 3.5-13.38 0-8.749-3.414-16.431-10.243-23.004-6.253-6.204-14.866-10.038-24.375-10.038-0.269 0-0.536 0.003-0.803 0.009l0.039-0c-9.603 0-17.605 3.009-24.007 9.026-6.423 5.996-10.649 15.364-12.633 28.125l-23.132-2.753c2.070-17.072 8.237-30.174 18.501-39.264 10.328-9.070 23.964-13.614 40.887-13.614 17.925 0 32.223 4.865 42.892 14.618s16.005 21.553 16.005 35.381c0.001 0.117 0.002 0.256 0.002 0.394 0 7.987-2.089 15.486-5.752 21.98l0.116-0.224c-3.756 6.744-11.096 14.938-22.001 24.626-7.341 6.509-12.142 11.31-14.383 14.383s-3.926 6.615-4.993 10.627c-1.089 3.99-1.707 10.499-1.878 19.505h-21.639zM255.519 341.432v-25.628h25.608v25.628h-25.608z"></path></svg>
