<svg xmlns="http://www.w3.org/2000/svg" width="100%" height="100%" viewBox="0 0 32 32" class="qJBIL dbm-icon ELjRG" data-testid="icn_layout_star_toolbar"><title>layout-star-toolbar</title><path d="M8 24c0.736 0 1.333 0.597 1.333 1.333v1.333c0 0.736-0.597 1.333-1.333 1.333h-2.667c-0.736 0-1.333-0.597-1.333-1.333v-1.333c0-0.736 0.597-1.333 1.333-1.333h2.667zM28 24c0.736 0 1.333 0.597 1.333 1.333v1.333c0 0.736-0.597 1.333-1.333 1.333h-2.667c-0.736 0-1.333-0.597-1.333-1.333v-1.333c0-0.736 0.597-1.333 1.333-1.333h2.667zM22.667 10.667c0.736 0 1.333 0.597 1.333 1.333v9.333c0 0.736-0.597 1.333-1.333 1.333h-12c-0.736 0-1.333-0.597-1.333-1.333v-9.333c0-0.736 0.597-1.333 1.333-1.333h12zM22.667 12h-12v9.333h12v-9.333zM8 5.333c0.736 0 1.333 0.597 1.333 1.333v1.333c0 0.736-0.597 1.333-1.333 1.333h-2.667c-0.736 0-1.333-0.597-1.333-1.333v-1.333c0-0.736 0.597-1.333 1.333-1.333h2.667zM28 5.333c0.736 0 1.333 0.597 1.333 1.333v1.333c0 0.736-0.597 1.333-1.333 1.333h-2.667c-0.736 0-1.333-0.597-1.333-1.333v-1.333c0-0.736 0.597-1.333 1.333-1.333h2.667z"></path></svg>
