<svg width="100%" height="100%" viewBox="0 0 64 64" fill="none" xmlns="http://www.w3.org/2000/svg"><rect width="63.19" height="63.1941" transform="translate(0 0.194092)" fill="#1C70FF"></rect><path d="M40.595 21.9405H31.6011V24.0762H40.595V21.9405Z" fill="white" stroke="white" stroke-width="0.15"></path><path d="M37.5037 16.0041H22.595V18.1398H37.5037V16.0041Z" fill="white" stroke="white" stroke-width="0.15"></path><path d="M40.595 27.7926H22.595V29.9283H40.595V27.7926Z" fill="white" stroke="white" stroke-width="0.15"></path><path d="M36.2334 45.7132C36.2334 48.3752 34.5394 50.3331 31.7454 50.3331H27.9835V41.0932H31.7454C34.5174 41.0932 36.2334 43.0292 36.2334 45.7132ZM34.7925 45.6911C34.7925 43.7882 33.6265 42.3912 31.7235 42.3912H29.4135V49.0351H31.7235C33.6375 49.0351 34.7925 47.6272 34.7925 45.6802V45.6911Z" fill="white"></path><path d="M45.134 47.7482C45.134 49.2552 44.001 50.3331 42.098 50.3331H37.522V41.0932H41.823C43.55 41.0932 44.749 42.0832 44.76 43.5242C44.771 44.4482 44.309 45.1192 43.561 45.5042C44.529 45.8892 45.134 46.6812 45.134 47.7482ZM38.93 42.3362V45.0422H41.867C42.78 45.0422 43.374 44.4262 43.363 43.6892C43.363 42.9082 42.747 42.3472 41.79 42.3472H38.93V42.3362ZM43.704 47.6161C43.704 46.8681 43.132 46.1862 42.076 46.1862H38.9191V49.0792H42.054C43.088 49.0792 43.693 48.4191 43.693 47.6161H43.704Z" fill="white"></path><path d="M55.595 41.0932V50.3331H54.154V43.5792L50.986 48.0122L47.829 43.5792V50.3331H46.388V41.0932H47.763L50.997 45.7352L54.22 41.0932H55.595Z" fill="white"></path><path d="M24.9969 41.0932H26.3829V50.3331H24.9969V41.0932Z" fill="white"></path><path d="M23.4901 43.6891V53.0941H22.1151V49.3211C21.6091 50.0361 20.795 50.4981 19.728 50.4981C17.8581 50.4981 16.4281 49.0131 16.4281 47.0001C16.4281 44.9871 17.8581 43.5131 19.728 43.5131C20.795 43.5131 21.6091 43.9751 22.1151 44.6901V43.6891H23.4901ZM22.148 47.0001C22.148 45.7021 21.1691 44.7561 19.9591 44.7561C18.7491 44.7561 17.792 45.6911 17.792 47.0001C17.792 48.3091 18.6941 49.2551 19.9591 49.2551C21.2241 49.2551 22.148 48.3091 22.148 47.0001Z" fill="white"></path><path d="M7.595 47.7153L8.95899 47.3083C9.35498 48.3753 10.389 49.2333 11.83 49.2333C13.106 49.2333 13.931 48.5183 13.931 47.7923C13.931 47.1873 13.546 46.7913 12.468 46.4503L10.147 45.7133C8.915 45.3283 8.079 44.6133 8.079 43.4583C8.079 42.0833 9.40996 40.9283 11.2689 40.9283C13.2379 40.9283 14.624 41.9733 15.152 43.2273L13.8209 43.6233C13.4029 42.7763 12.479 42.1933 11.28 42.1933C10.235 42.1933 9.53101 42.7653 9.53101 43.4253C9.53101 43.9533 9.87194 44.2723 10.7079 44.5253L12.9739 45.2513C14.4039 45.7023 15.3829 46.2963 15.3829 47.7153C15.3829 49.2553 13.931 50.5093 11.764 50.5093C9.59697 50.5093 8.10101 49.1783 7.60601 47.7263L7.595 47.7153Z" fill="white"></path><path d="M57.2598 40.9283C57.8233 40.9283 58.2563 41.3554 58.2563 41.9189C58.2563 42.4794 57.8233 42.9095 57.2598 42.9095C56.6963 42.9095 56.2603 42.4794 56.2603 41.9189C56.2603 41.3554 56.6963 40.9283 57.2598 40.9283ZM57.2598 42.7582C57.7373 42.7582 58.0961 42.3964 58.0961 41.9189C58.0961 41.4384 57.7373 41.0796 57.2598 41.0796C56.7823 41.0796 56.4205 41.4384 56.4205 41.9189C56.4205 42.3964 56.7823 42.7582 57.2598 42.7582ZM57.6898 41.741C57.6898 41.8685 57.6097 41.993 57.4644 42.0375L57.6987 42.4082H57.5059L57.2865 42.0524H57.0522V42.4082H56.8861V41.4236H57.3606C57.5682 41.4236 57.6898 41.5867 57.6898 41.741ZM57.0522 41.5778V41.9041H57.3488C57.4555 41.9041 57.5237 41.827 57.5237 41.741C57.5237 41.652 57.4555 41.5778 57.3517 41.5778H57.0522Z" fill="white"></path></svg>
