<svg xmlns="http://www.w3.org/2000/svg" width="100%" height="100%" viewBox="0 0 32 32" class="qJBIL dbm-icon ELjRG" data-testid="icn_note_toolbar"><title>note-toolbar</title><path d="M27.333 4c1.841 0 3.333 1.492 3.333 3.333v16c0 1.841-1.492 3.333-3.333 3.333h-21.333c-1.841 0-3.333-1.492-3.333-3.333v-12.223c0-0.168 0.063-0.329 0.177-0.452l5.952-6.444c0.126-0.137 0.304-0.214 0.49-0.214h18.049zM27.333 5.333h-16.667v3.333c0 1.767-1.375 3.213-3.114 3.326l-0.219 0.007h-3.333v11.333c0 1.105 0.895 2 2 2h21.333c1.105 0 2-0.895 2-2v-16c0-1.105-0.895-2-2-2zM20 20v1.333h-9.333v-1.333h9.333zM22.667 16v1.333h-12v-1.333h12zM9.333 5.596l-4.683 5.071h2.683c1.040 0 1.894-0.793 1.991-1.807l0.009-0.193v-3.071z"></path></svg>
