<svg xmlns="http://www.w3.org/2000/svg" width="100%" height="100%" viewBox="0 0 32 32" class="qJBIL dbm-icon ELjRG" data-testid="icn_properties"><path d="M10.667 5.333l0.001 13.4c1.521 0.309 2.666 1.654 2.666 3.267s-1.145 2.957-2.666 3.267l-0.001 2.733h-1.333l0.001-2.733c-1.522-0.309-2.667-1.654-2.667-3.267s1.146-2.958 2.667-3.267l-0.001-13.4h1.333zM21.333 5.333l0.001 2.733c1.521 0.309 2.666 1.654 2.666 3.267s-1.145 2.957-2.666 3.267l-0.001 13.4h-1.333l0.001-13.4c-1.522-0.309-2.667-1.654-2.667-3.267s1.146-2.958 2.667-3.267l-0.001-2.733h1.333zM10 20c-1.105 0-2 0.895-2 2s0.895 2 2 2c1.105 0 2-0.895 2-2s-0.895-2-2-2zM20.667 9.333c-1.105 0-2 0.895-2 2s0.895 2 2 2c1.105 0 2-0.895 2-2s-0.895-2-2-2z"></path></svg>
