<svg xmlns="http://www.w3.org/2000/svg" width="100%" height="100%" viewBox="0 0 32 32" class="qJBIL dbm-icon xy5n4 JDw7m" data-testid="icn_nonid_virtual_relationship"><title>nonid-virtual-relationship</title><path d="M5 18c2.417 0 4.433 1.714 4.899 3.993l1.995 0.001v2l-1.993 0.001c-0.461 2.285-2.48 4.005-4.901 4.005-2.761 0-5-2.239-5-5s2.239-5 5-5zM18.927 21.149l1.391 1.437c-0.506 0.49-1.109 0.868-1.77 1.108l-0.404 0.128-0.521-1.931c0.392-0.106 0.757-0.291 1.075-0.542l0.229-0.2zM21.84 14.063v2h-2v-2h2zM23.503 6.34l0.534 1.927c-0.392 0.108-0.756 0.296-1.071 0.549l-0.227 0.202-1.401-1.427c0.503-0.493 1.103-0.876 1.763-1.12l0.403-0.13zM31.813 6.159v2h-2v-2h2z"></path></svg>
