<svg xmlns="http://www.w3.org/2000/svg" width="100%" height="100%" viewBox="0 0 32 32" class="qJBIL dbm-icon xy5n4 JDw7m" data-testid="icn_reference"><path d="M5 18c2.419 0 4.436 1.717 4.9 3.999l3.238 0.001v2l-3.238 0.001c-0.464 2.282-2.481 3.999-4.9 3.999-2.761 0-5-2.239-5-5s2.239-5 5-5zM19.847 21.388l1.843 0.777c-0.465 1.103-1.548 1.835-2.765 1.835v0h-1.787v-2h1.787c0.406 0 0.767-0.244 0.922-0.612v0zM21.925 13.616v4h-2v-4h2zM23.517 6.037v2h-0.592c-0.552 0-1 0.448-1 1v0 0.579h-2v-0.579c0-1.657 1.343-3 3-3v0h0.592zM29.764 6.037v2h-2.246v-2h2.246z"></path></svg>
