<svg xmlns="http://www.w3.org/2000/svg" width="100%" height="100%" viewBox="0 0 32 32" class="qJBIL dbm-icon ELjRG" data-testid="icn_reference_non_id_toolbar"><title>reference-non-id-toolbar</title><path d="M7.333 20c1.841 0 3.333 1.492 3.333 3.333s-1.492 3.333-3.333 3.333c-1.84 0-3.333-1.492-3.333-3.333s1.493-3.333 3.333-3.333zM13.333 22.667v1.333h-2.667v-1.333h2.667zM18.667 22.667v1.333h-2.667v-1.333h2.667zM20 18.667v2.667h-1.333v-2.667h1.333zM20 13.333v2.667h-1.333v-2.667h1.333zM20 8v2.667h-1.333v-2.667h1.333zM26.819 4.153v1.333h-2.667v-1.333h2.667zM21.486 4.153v1.333h-2.153v-0.153l-0.667 0.001v-1.181h2.819zM20 4.819h-0.667v0.513l0.667 0.001v-0.514z"></path></svg>
