<svg xmlns="http://www.w3.org/2000/svg" width="100%" height="100%" viewBox="0 0 32 32" class="qJBIL dbm-icon ELjRG" data-testid="icn_reference_virt_id_toolbar"><title>reference-virt-id-toolbar</title><path d="M7.333 20c1.613 0 2.958 1.145 3.267 2.666l2.733 0.001v1.333l-2.733 0.001c-0.309 1.521-1.654 2.666-3.267 2.666-1.84 0-3.333-1.492-3.333-3.333s1.493-3.333 3.333-3.333zM19.396 19.478v1.189c0 1.17-0.609 2.233-1.577 2.834l-0.213 0.121-0.618-1.181c0.601-0.314 1.003-0.91 1.066-1.587l0.009-0.186v-1.189h1.333zM19.396 11.478v4h-1.333v-4h1.333zM21.296 4.154l0.040 1.333c-1.013 0.030-1.834 0.813-1.93 1.805l-0.009 0.188-1.333-0.004c0.005-1.724 1.321-3.146 3.011-3.308l0.222-0.014zM27.938 4.153v1.333h-2.616v-1.333h2.616z"></path></svg>
