<svg xmlns="http://www.w3.org/2000/svg" width="100%" height="100%" viewBox="0 0 32 32" class="qJBIL dbm-icon xy5n4 JDw7m" data-testid="icn_id_virtual_relationship"><title>id-virtual-relationship</title><path d="M5 18c2.761 0 5 2.239 5 5s-2.239 5-5 5c-2.761 0-5-2.239-5-5s2.239-5 5-5zM17.885 19.554l1.942 0.477c-0.518 2.107-2.345 3.643-4.511 3.792l-0.345 0.012h-0.971v-2h0.971c1.296 0 2.426-0.829 2.837-2.020l0.077-0.261zM19.445 7.455l1.411 1.418c-0.493 0.49-0.8 1.131-0.869 1.826l-0.015 0.301v2.929h-2v-2.929c0-1.213 0.435-2.359 1.205-3.255l0.269-0.289zM31.92 6v2h-6v-2h6z"></path></svg>
