<svg xmlns="http://www.w3.org/2000/svg" width="100%" height="100%" viewBox="0 0 32 32" class="qJBIL dbm-icon ELjRG" data-testid="icn_reference_id_toolbar"><title>reference-id-toolbar</title><path d="M7.333 20c1.841 0 3.333 1.492 3.333 3.333s-1.492 3.333-3.333 3.333c-1.84 0-3.333-1.492-3.333-3.333s1.493-3.333 3.333-3.333zM26.006 4.153v1.333h-4.006c-1.105 0-2 0.895-2 2v0 13.181c0 1.841-1.492 3.333-3.333 3.333v0h-6v-1.333h6c1.105 0 2-0.895 2-2v0-13.181c0-1.841 1.492-3.333 3.333-3.333v0h4.006z"></path></svg>
