<svg xmlns="http://www.w3.org/2000/svg" width="100%" height="100%" viewBox="0 0 32 32"><title>reset-zoom-toolbar</title><path d="M27.333 4c1.767 0 3.213 1.375 3.326 3.114l0.007 0.219v16c0 1.767-1.375 3.213-3.114 3.326l-0.219 0.007h-21.333c-1.767 0-3.213-1.375-3.326-3.114l-0.007-0.219v-16c0-1.767 1.375-3.213 3.114-3.326l0.219-0.007h21.333zM27.333 5.333h-21.333c-1.040 0-1.894 0.793-1.991 1.807l-0.009 0.193v16c0 1.040 0.793 1.894 1.807 1.991l0.193 0.009h21.333c1.040 0 1.894-0.793 1.991-1.807l0.009-0.193v-16c0-1.105-0.895-2-2-2zM10.655 10.709v9.291h-1.32v-7.827l-2.104 0.96-0.324-1.128 2.644-1.296h1.104zM15.333 10.667c1.841 0 3.333 1.492 3.333 3.333v2.667c0 1.841-1.492 3.333-3.333 3.333s-3.333-1.492-3.333-3.333v-2.667c0-1.841 1.492-3.333 3.333-3.333zM23.333 10.667c1.841 0 3.333 1.492 3.333 3.333v2.667c0 1.841-1.492 3.333-3.333 3.333s-3.333-1.492-3.333-3.333v-2.667c0-1.841 1.492-3.333 3.333-3.333zM15.333 12c-1.105 0-2 0.895-2 2v2.667c0 1.105 0.895 2 2 2s2-0.895 2-2v-2.667c0-1.105-0.895-2-2-2zM23.333 12c-1.105 0-2 0.895-2 2v2.667c0 1.105 0.895 2 2 2s2-0.895 2-2v-2.667c0-1.105-0.895-2-2-2z"></path></svg>
