<svg xmlns="http://www.w3.org/2000/svg" width="100%" height="100%" viewBox="0 0 32 32"><title>select-toolbar</title><path d="M6 26.667h2.667v-1.333h-2.667v1.333zM11.333 26.667h2.667v-1.333h-2.667v1.333zM16.667 26.667h2.667v-1.333h-2.667v1.333zM22 26.667h2.667v-1.333h-2.667v1.333zM27.333 26.667c1.203 0 2.295-0.643 2.887-1.666l-1.154-0.668c-0.356 0.614-1.010 1-1.733 1v1.333zM30.667 22.082v-2.667h-1.333v2.667h1.333zM30.667 16.749v-2.667h-1.333v2.667h1.333zM30.667 11.415v-2.667h-1.333v2.667h1.333zM30.3 5.812c-0.54-1.052-1.602-1.749-2.8-1.808l-0.066 1.332c0.718 0.035 1.355 0.454 1.68 1.085l1.186-0.609zM24.831 4h-2.667v1.333h2.667v-1.333zM19.497 4h-2.667v1.333h2.667v-1.333zM14.164 4h-2.667v1.333h2.667v-1.333zM8.831 4h-2.667v1.333h2.667v-1.333zM3.238 5.467c-0.37 0.547-0.571 1.192-0.571 1.866v1.087h1.333v-1.087c0-0.405 0.12-0.791 0.342-1.119l-1.104-0.747zM2.667 11.087v2.667h1.333v-2.667h-1.333zM2.667 16.421v2.667h1.333v-2.667h-1.333zM2.667 21.754v1.579c0 0.463 0.095 0.915 0.277 1.331l1.222-0.533c-0.109-0.249-0.165-0.519-0.165-0.798v-1.579h-1.333zM5.561 26.638c0.135 0.018 0.271 0.027 0.408 0.029l0.012-1.333c-0.083-0.001-0.165-0.007-0.246-0.017l-0.174 1.322z"></path></svg>
