<svg xmlns="http://www.w3.org/2000/svg" width="100%" height="100%" viewBox="0 0 32 32" class="qJBIL dbm-icon ELjRG" data-testid="icn_share"><path d="M23.333 5.333c1.841 0 3.333 1.492 3.333 3.333s-1.492 3.333-3.333 3.333c-0.957 0-1.82-0.404-2.428-1.050l-0.12-0.134-8.931 4.871-0.007-0.024c0.1 0.316 0.153 0.653 0.153 1.002s-0.054 0.686-0.153 1.002l0.007-0.024 8.93 4.872-0.014 0.016c0.611-0.734 1.533-1.202 2.563-1.202 1.841 0 3.333 1.492 3.333 3.333s-1.492 3.333-3.333 3.333c-1.841 0-3.333-1.492-3.333-3.333 0-0.35 0.054-0.688 0.154-1.005l-0.008 0.027-8.931-4.871-0.12 0.134c-0.608 0.646-1.471 1.050-2.428 1.050-1.841 0-3.333-1.492-3.333-3.333s1.492-3.333 3.333-3.333c1.029 0 1.949 0.466 2.561 1.199l-0.013-0.015 8.931-4.87 0.010 0.031c-0.101-0.319-0.156-0.658-0.156-1.010 0-1.841 1.492-3.333 3.333-3.333zM23.333 22.664c-1.105 0-2 0.895-2 2s0.895 2 2 2c1.105 0 2-0.895 2-2s-0.895-2-2-2zM20.227 23.453l0.015-0.039-0.006 0.015c-0.003 0.008-0.006 0.016-0.009 0.024zM20.367 23.141l-0.021 0.043c0.007-0.014 0.014-0.028 0.021-0.042v0zM20.504 22.901l-0.029 0.048c0.010-0.016 0.019-0.032 0.029-0.048v0zM20.634 22.708l0.151-0.192c-0.073 0.087-0.142 0.177-0.206 0.272l0.056-0.079zM11.355 18.633l-0.14 0.181 0.091-0.112 0.049-0.069zM8.667 14.665c-1.105 0-2 0.895-2 2s0.895 2 2 2c1.105 0 2-0.895 2-2s-0.895-2-2-2zM11.525 18.381v0zM11.654 18.146l-0.009 0.018-0.005 0.008 0.014-0.026zM11.391 14.744v0l-0.022-0.031zM23.333 6.667c-1.105 0-2 0.895-2 2s0.895 2 2 2c1.105 0 2-0.895 2-2s-0.895-2-2-2zM20.456 10.35l0.019 0.033c-0.006-0.011-0.013-0.022-0.019-0.033z"></path></svg>
