<svg xmlns="http://www.w3.org/2000/svg" width="100%" height="100%" viewBox="0 0 32 32" class="qJBIL dbm-icon ELjRG" data-testid="icn_table_toolbar"><title>table-toolbar</title><path d="M27.333 4c1.841 0 3.333 1.492 3.333 3.333v0 16c0 1.841-1.492 3.333-3.333 3.333v0h-21.333c-1.841 0-3.333-1.492-3.333-3.333v0-16c0-1.841 1.492-3.333 3.333-3.333v0zM16 15.999l-12 0.001v7.333c0 1.040 0.793 1.894 1.807 1.991l0.193 0.009h10v-9.334zM17.333 15.999v9.334h10c1.040 0 1.894-0.793 1.991-1.807l0.009-0.193v-7.333l-12-0.001zM16 5.333h-10c-1.105 0-2 0.895-2 2v0 7.333l12-0.001v-9.333zM27.333 5.333h-10v9.333l12 0.001v-7.333c0-1.040-0.793-1.894-1.807-1.991l-0.193-0.009z"></path></svg>
