<svg xmlns="http://www.w3.org/2000/svg" width="100%" height="100%" viewBox="0 0 32 32" class="qJBIL dbm-icon ELjRG" data-testid="icn_viewmode_conceptual"><path d="M6 4h21.333c1.767 0 3.213 1.375 3.326 3.114l0.007 0.219 0.002 11.777c-0.415-0.42-0.861-0.804-1.334-1.146l-0.001-1.964-12-0.001-0.001 1.964c-0.473 0.343-0.919 0.726-1.333 1.145l0.001-3.109-12 0.001v7.333c0 1.040 0.793 1.894 1.807 1.991l0.193 0.009h7.649c0.193 0.467 0.412 0.911 0.657 1.335l-8.307-0.001c-1.767 0-3.213-1.375-3.326-3.114l-0.007-0.219v-16c0-1.767 1.375-3.213 3.114-3.326l0.219-0.007h21.333zM16 5.333h-10c-1.040 0-1.894 0.793-1.991 1.807l-0.009 0.193v7.333l12-0.001v-9.333zM27.333 5.333h-10v9.333l12 0.001v-7.333c0-1.040-0.793-1.894-1.807-1.991l-0.193-0.009z"></path><path d="M23.333 17.333c3.837 0 7.236 2.309 8.619 5.752 0.064 0.159 0.064 0.338 0 0.497-1.383 3.442-4.782 5.752-8.619 5.752-3.838 0-7.237-2.31-8.619-5.752-0.064-0.159-0.064-0.337 0-0.497 1.381-3.442 4.781-5.752 8.619-5.752zM23.333 18.667c-3.199 0-6.037 1.866-7.277 4.667 1.24 2.8 4.078 4.667 7.277 4.667 3.197 0 6.035-1.866 7.276-4.667v0l-0.134-0.286c-1.303-2.641-4.055-4.38-7.142-4.38zM23.374 20.774c1.436 0 2.6 1.164 2.6 2.6s-1.164 2.6-2.6 2.6c-1.436 0-2.6-1.164-2.6-2.6s1.164-2.6 2.6-2.6z"></path></svg>
