<?xml version="1.0" encoding="UTF-8" standalone="no"?>
<svg
   width="100%"
   height="100%"
   viewBox="0 0 32 32"
   class="qJBIL dbm-icon ELjRG"
   data-testid="icn_viewmode_key"
   version="1.1"
   id="svg1"
   sodipodi:docname="vm-key.svg"
   inkscape:version="1.4.2 (ebf0e940d0, 2025-05-08)"
   xmlns:inkscape="http://www.inkscape.org/namespaces/inkscape"
   xmlns:sodipodi="http://sodipodi.sourceforge.net/DTD/sodipodi-0.dtd"
   xmlns="http://www.w3.org/2000/svg"
   xmlns:svg="http://www.w3.org/2000/svg">
  <defs
     id="defs1" />
  <sodipodi:namedview
     id="namedview1"
     pagecolor="#ffffff"
     bordercolor="#000000"
     borderopacity="0.25"
     inkscape:showpageshadow="2"
     inkscape:pageopacity="0.0"
     inkscape:pagecheckerboard="0"
     inkscape:deskcolor="#d1d1d1"
     inkscape:zoom="35.34375"
     inkscape:cx="15.971706"
     inkscape:cy="14.542882"
     inkscape:window-width="2560"
     inkscape:window-height="1363"
     inkscape:window-x="0"
     inkscape:window-y="0"
     inkscape:window-maximized="1"
     inkscape:current-layer="svg1" />
  <title
     id="title1">viewmode-key</title>
  <path
     id="path1"
     d="m 9.3339844,5.3398437 c -3.3137705,2.696e-4 -5.9999999,2.6861665 -5.9999999,5.9999993 0,3.314002 2.686,6 5.9999999,6 3.0879986,2e-6 5.6308906,-2.333031 5.9628906,-5.332031 H 22 v 1.417969 c 0.456764,0.09885 0.903129,0.231558 1.333984,0.394531 v -1.8125 h 1.332031 v 2.439453 C 25.137475,14.716974 25.584559,15.02881 26,15.375 v -3.367188 h 2.666015 V 10.673828 H 15.296875 C 14.965892,7.6739896 12.421757,5.3400957 9.3339844,5.3398437 Z m 0,1.3339844 C 11.911983,6.6738281 14,8.7637961 14,11.341797 c 0,2.578 -2.089017,4.666015 -4.6660156,4.666015 -2.5779999,0 -4.6679686,-2.088015 -4.6679686,-4.666015 0,-2.5780008 2.0909687,-4.6679688 4.6679686,-4.6679689 z M 19.998047,14.660156 c -3.838,0 -7.238141,2.309953 -8.619141,5.751953 -0.064,0.16 -0.064,0.337094 0,0.496094 1.382,3.442 4.781141,5.751953 8.619141,5.751953 3.837,0 7.23614,-2.309953 8.61914,-5.751953 0.064,-0.159 0.064,-0.337094 0,-0.496094 -1.383,-3.443 -4.78214,-5.751953 -8.61914,-5.751953 z m 0,1.332031 v 0.002 c 3.087,0 5.839578,1.737907 7.142578,4.378907 l 0.134765,0.287109 c -1.241,2.801 -4.080343,4.666016 -7.277343,4.666016 -3.199,0 -6.037344,-1.866016 -7.277344,-4.666016 1.24,-2.801 4.078344,-4.667969 7.277344,-4.667969 z m 0.04102,2.107422 c -1.436,0 -2.599609,1.16361 -2.599609,2.59961 0,1.435999 1.163609,2.599609 2.599609,2.599609 1.436,0 2.59961,-1.16361 2.59961,-2.599609 0,-1.436 -1.16361,-2.59961 -2.59961,-2.59961 z" />
</svg>
