<svg xmlns="http://www.w3.org/2000/svg" width="100%" height="100%" viewBox="0 0 32 32" class="qJBIL dbm-icon ELjRG" data-testid="icn_viewmode_logical"><title>viewmode-logical</title><path d="M23.333 17.333c3.837 0 7.236 2.309 8.619 5.752 0.064 0.159 0.064 0.338 0 0.497-1.383 3.442-4.782 5.752-8.619 5.752-3.838 0-7.237-2.31-8.619-5.752-0.064-0.159-0.064-0.337 0-0.497 1.381-3.442 4.781-5.752 8.619-5.752zM23.333 18.667c-3.199 0-6.037 1.866-7.277 4.667 1.24 2.8 4.078 4.667 7.277 4.667 3.087 0 5.839-1.74 7.142-4.38l0.134-0.286-0.134-0.286c-1.303-2.641-4.055-4.38-7.142-4.38zM26.667 4c2.209 0 4 1.791 4 4l0.002 10.898c-0.322-0.303-0.663-0.586-1.021-0.847l-0.315-0.22-0.001-5.831h-25.333l0.001 10.667c0 1.473 1.194 2.667 2.667 2.667l7.417 0.002c0.267 0.469 0.568 0.914 0.901 1.333l-8.318-0.001c-2.209 0-4-1.791-4-4v-14.667c0-2.209 1.791-4 4-4h20zM23.374 20.774c1.436 0 2.6 1.164 2.6 2.6s-1.164 2.6-2.6 2.6c-1.436 0-2.6-1.164-2.6-2.6s1.164-2.6 2.6-2.6zM26.667 5.333l-20.199 0.007c-1.38 0.102-2.468 1.254-2.468 2.659l-0.001 2.667h25.333l0.001-2.667c0-1.473-1.194-2.667-2.667-2.667z"></path></svg>
