<svg xmlns="http://www.w3.org/2000/svg" width="100%" height="100%" viewBox="0 0 32 32" class="qJBIL dbm-icon ELjRG" data-testid="icn_viewmode_note"><title>viewmode-note</title><path d="M23.333 17.333c3.837 0 7.236 2.309 8.619 5.752 0.064 0.159 0.064 0.338 0 0.497-1.383 3.442-4.782 5.752-8.619 5.752-3.838 0-7.237-2.31-8.619-5.752-0.064-0.159-0.064-0.337 0-0.497 1.381-3.442 4.781-5.752 8.619-5.752zM23.333 18.667c-3.199 0-6.037 1.866-7.277 4.667 1.24 2.8 4.078 4.667 7.277 4.667 3.197 0 6.035-1.866 7.276-4.667v0l-0.134-0.286c-1.303-2.641-4.055-4.38-7.142-4.38zM23.374 20.774c1.436 0 2.6 1.164 2.6 2.6s-1.164 2.6-2.6 2.6c-1.436 0-2.6-1.164-2.6-2.6s1.164-2.6 2.6-2.6z"></path><path d="M27.333 5.333c1.841 0 3.333 1.492 3.333 3.333l0.002 10.443c-0.415-0.42-0.861-0.804-1.334-1.146l-0.001-9.297c0-1.105-0.895-2-2-2h-16.667v3.333c0 1.767-1.375 3.213-3.114 3.326l-0.219 0.007h-3.333v11.333c0 1.105 0.895 2 2 2l8.307 0.001c0.272 0.47 0.574 0.916 0.905 1.333l-9.212-0.001c-1.841 0-3.333-1.492-3.333-3.333v-12.223c0-0.168 0.063-0.329 0.177-0.452l5.952-6.444c0.126-0.137 0.304-0.214 0.49-0.214h18.048zM13.649 22.668l-2.983-0.001v-1.333h3.639c-0.245 0.425-0.465 0.87-0.657 1.334zM16.461 18.667h-5.795v-1.333h7.644c-0.66 0.375-1.28 0.822-1.85 1.334zM9.333 6.929l-4.683 5.071h2.683c1.040 0 1.894-0.793 1.991-1.807l0.009-0.193v-3.071z"></path></svg>
