<svg xmlns="http://www.w3.org/2000/svg" width="100%" height="100%" viewBox="0 0 32 32" class="qJBIL dbm-icon ELjRG" data-testid="icn_viewmode_column"><title>viewmode-column</title><path d="M5.333 5.333v21.333h-1.333v-21.333h1.333zM12 5.333v21.333h-1.333v-21.333h1.333zM18.667 5.333v9.989c-0.457 0.163-0.902 0.351-1.334 0.563l0.001-10.552h1.333zM25.333 5.333l0.001 9.465c-0.438-0.081-0.883-0.139-1.334-0.175v-9.29h1.333z"></path><path d="M22.667 16.667c3.837 0 7.236 2.309 8.619 5.752 0.064 0.159 0.064 0.338 0 0.497-1.383 3.442-4.782 5.752-8.619 5.752-3.838 0-7.237-2.31-8.619-5.752-0.064-0.159-0.064-0.337 0-0.497 1.381-3.442 4.781-5.752 8.619-5.752zM22.667 18c-3.199 0-6.037 1.866-7.277 4.667 1.24 2.8 4.078 4.667 7.277 4.667 3.197 0 6.035-1.866 7.276-4.667v0l-0.134-0.286c-1.303-2.641-4.055-4.38-7.142-4.38zM22.707 20.107c1.436 0 2.6 1.164 2.6 2.6s-1.164 2.6-2.6 2.6c-1.436 0-2.6-1.164-2.6-2.6s1.164-2.6 2.6-2.6z"></path></svg>
